<svg width="226" height="64" viewBox="0 0 226 64" fill="none" xmlns="http://www.w3.org/2000/svg">
<g clip-path="url(#clip0_1967_13344)">
<path fill-rule="evenodd" clip-rule="evenodd" d="M170.022 26.6412V14.4958V26.6412ZM170.022 14.4958H166.526V26.6412H170.022V14.4958ZM150.836 19.6933C150.836 17.463 151.433 17.1188 153.847 17.1188H159.869V21.1915C159.869 23.2618 159.365 23.7467 157.202 23.7467H153.871C151.433 23.7467 150.836 23.3539 150.836 21.1721V19.703V19.6933ZM157.294 26.6412C161.939 26.6412 163.297 25.2158 163.297 21.2594V10.1467H159.869V14.1709H153.435C148.766 14.1709 147.408 15.5964 147.408 19.577V21.2594C147.408 25.2158 148.766 26.6412 153.435 26.6412H157.294ZM118.599 25.7443C118.943 26.457 119.564 26.9855 120.461 26.9855C121.358 26.9855 122.027 26.457 122.347 25.7443L127.568 14.1758H124.165L120.393 22.5733L117.008 15.1212C116.616 14.2485 116.111 13.8364 115.147 13.8364C114.182 13.8364 113.673 14.297 113.261 15.1212L109.697 22.5733L106.109 14.1758H102.633L107.627 25.7443C107.951 26.5055 108.431 26.9855 109.469 26.9855C110.39 26.9855 111.011 26.5006 111.379 25.7443L115.084 18.0594L118.604 25.7443H118.599ZM96.1357 26.6412V19.4412C96.1357 17.463 96.7321 16.9588 98.6424 16.9588H101.988L100.781 14.1758H98.5502C94.3417 14.1758 92.7078 15.6933 92.7078 19.4218V26.6461H96.1357V26.6412ZM87.2775 22.0642C87.2775 23.9261 86.5842 24.2946 84.9793 24.2946H79.0254C78.1527 24.2946 77.6242 23.9939 77.6242 23.1212V22.2727C77.6242 21.2836 78.109 21.0073 78.9139 21.0073H87.2824V22.0642H87.2775ZM85.023 26.6412C89.4399 26.6412 90.7054 25.4242 90.7054 21.8121V18.777C90.7054 15.6012 89.1393 14.1758 85.1587 14.1758H74.9187V16.6146H85.1587C86.6763 16.6146 87.2775 17.0315 87.2775 18.6121V18.8885H78.5405C75.0884 18.8885 74.2157 20.0861 74.2157 22.1806V23.3539C74.2157 25.3758 75.1805 26.6461 78.7684 26.6461H85.023V26.6412ZM72.2133 26.6412V12.0327C72.2133 11.0436 71.3842 10.6073 70.3272 10.6073C69.5224 10.6073 69.1539 10.84 68.766 11.3442L59.8399 23.097L50.9817 11.3442C50.589 10.8158 50.1527 10.6073 49.3236 10.6073C48.2424 10.6073 47.4375 11.0436 47.4375 12.0327V26.6412H50.6133V16.3091L58.2496 26.3164C58.6181 26.777 59.103 26.9855 59.7914 26.9855C60.4799 26.9855 60.9648 26.777 61.3333 26.3164L68.9939 16.3091V26.6412H72.2181H72.2133ZM169.983 33.5794L167.661 39.8145L165.673 44.823L165.634 44.9152H164.233L164.325 44.7067L165.964 40.9733C165.886 40.9733 165.808 40.9733 165.741 40.9636C165.6 40.9539 165.469 40.9297 165.358 40.8958C165.246 40.8618 165.144 40.823 165.052 40.7794C164.96 40.7358 164.878 40.6824 164.8 40.6243C164.722 40.5661 164.654 40.5079 164.601 40.44C164.543 40.3721 164.49 40.2994 164.446 40.217C164.368 40.0764 164.301 39.9309 164.247 39.7855L161.905 33.5794L161.828 33.3806H164.102L164.136 33.4776L166.351 39.6836C166.351 39.6836 166.361 39.703 166.366 39.7079C166.376 39.7127 166.385 39.7176 166.405 39.7176C166.424 39.7176 166.434 39.7176 166.444 39.7079C166.448 39.7079 166.453 39.6982 166.458 39.6836L168.737 33.4824L168.771 33.3855H170.065L169.988 33.5842L169.983 33.5794ZM153.139 39.2667C153.139 39.383 153.139 39.48 153.149 39.5673C153.149 39.6594 153.164 39.737 153.173 39.8145C153.183 39.8824 153.198 39.9503 153.212 40.0085C153.227 40.0667 153.246 40.1152 153.27 40.1636C153.299 40.2218 153.333 40.2752 153.377 40.3139C153.416 40.3527 153.464 40.3867 153.518 40.4061C153.576 40.4303 153.639 40.4497 153.702 40.4594C153.765 40.4691 153.833 40.4739 153.901 40.4691C153.998 40.4691 154.094 40.4497 154.187 40.4303C154.279 40.4109 154.371 40.3818 154.458 40.343C154.555 40.3042 154.642 40.2655 154.72 40.2218C154.802 40.1782 154.88 40.1394 154.948 40.0909C155.03 40.0327 155.108 39.9745 155.181 39.9212C155.253 39.863 155.321 39.8049 155.394 39.7418L155.641 39.5139V40.9733L155.588 41.0218C155.501 41.0897 155.413 41.1527 155.316 41.2109C155.219 41.2691 155.118 41.3273 155.016 41.3758C154.919 41.4194 154.817 41.463 154.71 41.5018C154.604 41.5406 154.487 41.5794 154.361 41.6182C154.235 41.657 154.099 41.6812 153.954 41.7006C153.808 41.7152 153.663 41.7297 153.508 41.7297C153.328 41.7297 153.159 41.72 152.989 41.7055C152.824 41.6909 152.664 41.6618 152.519 41.6279C152.364 41.5939 152.228 41.5455 152.097 41.4873C151.966 41.4242 151.845 41.3515 151.738 41.2642C151.627 41.1721 151.53 41.0703 151.447 40.9539C151.365 40.8376 151.297 40.7067 151.239 40.5612C151.185 40.4158 151.147 40.2558 151.118 40.0764C151.093 39.9018 151.079 39.7079 151.079 39.4994V34.5152H149.876V33.4388L150.007 33.4242L151.04 33.2933L151.098 31.7709V31.6642L151.205 31.6352L152.95 31.1261L153.139 31.0727V33.3903H155.447V34.52H153.139V39.2812V39.2667ZM140.572 31.3394C140.572 31.0339 140.679 30.7721 140.897 30.5539C141.004 30.4473 141.125 30.3697 141.256 30.3115C141.387 30.2582 141.532 30.2291 141.682 30.2291C141.833 30.2291 141.978 30.2582 142.109 30.3115C142.24 30.3649 142.361 30.4473 142.468 30.5539C142.574 30.6606 142.657 30.7818 142.71 30.9127C142.764 31.0436 142.793 31.1842 142.793 31.3394C142.793 31.4945 142.764 31.6303 142.71 31.7661C142.657 31.897 142.574 32.0182 142.468 32.1248C142.361 32.2315 142.24 32.3139 142.109 32.3673C141.978 32.4206 141.838 32.4497 141.682 32.4497C141.527 32.4497 141.387 32.4255 141.256 32.3673C141.125 32.3139 141.004 32.2315 140.897 32.1248C140.79 32.0182 140.708 31.897 140.654 31.7661C140.601 31.6352 140.572 31.4897 140.572 31.3394ZM141.847 33.3321C142.002 33.3224 142.138 33.3321 142.264 33.3758C142.395 33.4194 142.502 33.4873 142.594 33.5842C142.681 33.6764 142.749 33.7879 142.793 33.9091C142.836 34.0255 142.861 34.1564 142.861 34.297V41.5891H140.8V34.6606C140.8 34.5733 140.771 34.5006 140.718 34.4424C140.693 34.4182 140.664 34.3939 140.63 34.3794C140.596 34.3649 140.558 34.36 140.514 34.36H140.092V33.4194L140.233 33.4097L141.847 33.3321ZM127.791 39.7127C127.903 39.8049 128.048 39.897 128.228 40.0036C128.32 40.057 128.412 40.1055 128.514 40.1539C128.616 40.2024 128.718 40.2509 128.819 40.2945C128.921 40.3382 129.033 40.377 129.149 40.4158C129.265 40.4497 129.382 40.4836 129.503 40.5127C129.624 40.5418 129.741 40.5612 129.862 40.5758C129.978 40.5903 130.099 40.5952 130.216 40.5952C130.696 40.5952 131.05 40.5079 131.282 40.3333C131.394 40.2461 131.476 40.1491 131.53 40.0473C131.583 39.9406 131.607 39.8242 131.607 39.6933C131.607 39.577 131.593 39.4655 131.559 39.3733C131.53 39.2812 131.481 39.1939 131.418 39.1164C131.355 39.0388 131.258 38.9612 131.137 38.8885C131.011 38.8109 130.851 38.7333 130.662 38.6655L129.464 38.2339C129.188 38.1418 128.941 38.0206 128.718 37.8752C128.49 37.7297 128.291 37.56 128.111 37.3612C127.932 37.1576 127.796 36.92 127.704 36.6388C127.617 36.3673 127.573 36.0521 127.573 35.7079C127.573 35.2861 127.661 34.9224 127.84 34.6024C128.014 34.2873 128.252 34.0352 128.543 33.8412C128.684 33.7442 128.834 33.6618 128.999 33.5891C129.159 33.5212 129.328 33.4582 129.503 33.4145C129.678 33.3661 129.852 33.3321 130.031 33.3079C130.216 33.2836 130.395 33.2691 130.574 33.2691C131.457 33.2691 132.242 33.4921 132.931 33.9333L132.999 33.977V35.354L132.766 35.1842L132.383 34.903C132.32 34.8546 132.252 34.8109 132.174 34.7673C132.102 34.7236 132.019 34.6849 131.937 34.6461C131.854 34.6073 131.762 34.5733 131.67 34.5442C131.573 34.5103 131.476 34.4812 131.37 34.457C131.268 34.4327 131.156 34.4133 131.035 34.3988C130.914 34.3891 130.788 34.3794 130.642 34.3794C130.172 34.3794 129.847 34.4715 129.668 34.6558C129.576 34.7479 129.508 34.8497 129.464 34.9564C129.421 35.0582 129.401 35.1697 129.401 35.2909C129.401 35.4994 129.459 35.6885 129.576 35.8679C129.692 36.0424 129.905 36.183 130.23 36.2897L131.467 36.6873C131.801 36.7988 132.092 36.9346 132.339 37.0946C132.591 37.2546 132.8 37.4436 132.965 37.657C133.13 37.8703 133.256 38.1079 133.338 38.3697C133.421 38.6315 133.459 38.9079 133.459 39.2133C133.459 39.4364 133.435 39.6449 133.391 39.8339C133.348 40.0279 133.28 40.2073 133.193 40.3673C133.018 40.6873 132.781 40.9491 132.49 41.1527C132.344 41.2546 132.189 41.3418 132.019 41.4146C131.85 41.4873 131.67 41.5455 131.476 41.5891C131.287 41.6327 131.093 41.6667 130.894 41.6861C130.696 41.7103 130.497 41.72 130.293 41.72C130.056 41.72 129.818 41.7055 129.576 41.6715C129.338 41.6424 129.105 41.5939 128.868 41.5358C128.63 41.4727 128.412 41.4049 128.208 41.3176C128 41.2303 127.811 41.1333 127.631 41.0218L127.564 40.9782V39.5139L127.806 39.7127H127.791ZM118.914 34.4327L118.977 34.3649C119.088 34.2485 119.205 34.1321 119.326 34.0303C119.534 33.8558 119.782 33.6909 120.058 33.5406C120.204 33.463 120.354 33.4049 120.509 33.3661C120.664 33.3273 120.829 33.3079 120.994 33.3079C121.11 33.3079 121.222 33.3176 121.333 33.337C121.44 33.3564 121.551 33.3903 121.658 33.4291L121.75 33.4679V34.9758L121.551 34.903C121.44 34.8642 121.338 34.8352 121.231 34.8158C121.13 34.7964 121.038 34.7867 120.945 34.7867C120.79 34.7867 120.64 34.8012 120.504 34.8303C120.368 34.8594 120.238 34.903 120.121 34.9612C119.99 35.0242 119.874 35.0873 119.767 35.1552C119.661 35.223 119.559 35.2909 119.467 35.3636C119.36 35.4509 119.258 35.543 119.161 35.6352C119.079 35.7176 119.001 35.8 118.928 35.8873V41.5939H116.839V33.3855H118.875V33.5261L118.914 34.4327ZM109.741 36.2945C109.741 36.4255 109.731 36.5467 109.707 36.6679C109.682 36.7891 109.653 36.9006 109.605 37.0024C109.551 37.1285 109.459 37.2255 109.328 37.2885C109.212 37.3467 109.067 37.3806 108.887 37.3855H104.708C104.718 37.8703 104.776 38.3018 104.887 38.6703C105.008 39.0776 105.183 39.417 105.421 39.6885C105.896 40.2364 106.492 40.5079 107.219 40.5079C107.379 40.5079 107.539 40.4933 107.699 40.4691C107.859 40.4449 108.029 40.4012 108.199 40.3479C108.368 40.2945 108.538 40.2267 108.708 40.1442C108.878 40.0618 109.047 39.9649 109.222 39.8485L109.45 39.6982V41.1091L109.362 41.1479C108.921 41.337 108.48 41.4824 108.034 41.5794C107.588 41.6764 107.142 41.7248 106.691 41.7248C106.153 41.7248 105.634 41.6424 105.139 41.4873C104.887 41.4049 104.654 41.303 104.431 41.1721C104.208 41.0461 104 40.8909 103.811 40.7164C103.617 40.5418 103.442 40.3382 103.287 40.1103C103.132 39.8824 103.001 39.6352 102.89 39.3588C102.773 39.0824 102.691 38.777 102.633 38.4473C102.579 38.1176 102.55 37.7636 102.55 37.3855C102.55 37.1139 102.57 36.8473 102.608 36.5855C102.647 36.3236 102.71 36.0715 102.788 35.8243C102.87 35.577 102.967 35.3443 103.088 35.1261C103.205 34.9079 103.345 34.7042 103.501 34.5152C103.656 34.3261 103.83 34.1564 104.029 34.0061C104.223 33.8558 104.441 33.7249 104.674 33.6133C104.911 33.5018 105.164 33.4194 105.44 33.3612C105.711 33.3079 106.002 33.2788 106.308 33.2788C107.205 33.2788 107.956 33.5018 108.562 33.9479C108.737 34.0788 108.897 34.2291 109.038 34.3988C109.178 34.5685 109.304 34.7576 109.406 34.9661C109.513 35.1745 109.595 35.3927 109.653 35.6158C109.707 35.8388 109.741 36.0667 109.745 36.2994L109.741 36.2945ZM106.371 34.3164C106.172 34.3164 105.983 34.36 105.813 34.4473C105.639 34.5394 105.479 34.6752 105.333 34.8594C105.183 35.0436 105.062 35.2715 104.965 35.543C104.882 35.7758 104.819 36.0327 104.776 36.3236H107.816C107.854 36.3236 107.884 36.3236 107.908 36.3188C107.908 36.3091 107.908 36.3042 107.908 36.2945C107.908 36.183 107.903 36.0667 107.888 35.9503C107.874 35.8339 107.854 35.7127 107.825 35.5915C107.796 35.4703 107.762 35.3588 107.719 35.2521C107.67 35.1455 107.617 35.0436 107.559 34.9515C107.501 34.8594 107.428 34.777 107.35 34.6994C107.273 34.6218 107.181 34.5539 107.084 34.4909C106.991 34.4327 106.885 34.3891 106.768 34.36C106.652 34.3309 106.521 34.3115 106.376 34.3115M97.2702 33.5794L94.9624 40.4206C94.9333 40.503 94.8993 40.5855 94.8702 40.6679C94.8363 40.7503 94.7975 40.8279 94.7636 40.9006C94.7199 40.9782 94.6763 41.0558 94.623 41.1236C94.5745 41.1915 94.5163 41.2594 94.4533 41.3224C94.3902 41.3855 94.3175 41.4436 94.2399 41.4921C94.1624 41.5406 94.0751 41.5842 93.9781 41.6182C93.886 41.6521 93.7793 41.6812 93.6727 41.6958C93.5611 41.7152 93.4399 41.7248 93.3187 41.7248C93.1684 41.7248 93.0278 41.7152 92.9017 41.6958C92.7708 41.6764 92.6545 41.6473 92.5478 41.6085C92.4411 41.5697 92.349 41.5261 92.2617 41.4776C92.1745 41.4242 92.092 41.3661 92.0193 41.303C91.9466 41.24 91.8836 41.1721 91.8302 41.0994C91.772 41.0315 91.7236 40.9539 91.6848 40.8715C91.646 40.7988 91.6121 40.7212 91.5781 40.6388C91.5442 40.5612 91.5151 40.4788 91.486 40.3964L89.2266 33.5842L89.1636 33.3903H91.3842L91.4181 33.4921L93.6484 40.3333C93.6484 40.3333 93.6581 40.3479 93.663 40.3527C93.6727 40.3576 93.6824 40.3624 93.7017 40.3624C93.7211 40.3624 93.7308 40.3624 93.7405 40.3527C93.7454 40.3527 93.7502 40.343 93.7551 40.3285L96.0484 33.4873L96.0824 33.3855H97.3575L97.2896 33.5794H97.2702ZM80.5139 31.3394C80.5139 31.1842 80.543 31.0436 80.5963 30.9127C80.6496 30.7818 80.732 30.6606 80.8387 30.5539C80.9454 30.4473 81.0666 30.3697 81.1975 30.3115C81.3284 30.2582 81.4739 30.2291 81.6242 30.2291C81.7745 30.2291 81.9199 30.2582 82.0508 30.3115C82.1817 30.3649 82.303 30.4473 82.4096 30.5539C82.5163 30.6606 82.5987 30.7818 82.6521 30.9127C82.7054 31.0436 82.7345 31.1842 82.7345 31.3394C82.7345 31.4945 82.7054 31.6303 82.6521 31.7661C82.5987 31.897 82.5163 32.0182 82.4096 32.1248C82.303 32.2315 82.1817 32.3139 82.0508 32.3673C81.9199 32.4206 81.7745 32.4497 81.6242 32.4497C81.4739 32.4497 81.3333 32.4255 81.1975 32.3673C81.0666 32.3139 80.9454 32.2315 80.8387 32.1248C80.732 32.0182 80.6496 31.897 80.5963 31.7661C80.543 31.6352 80.5139 31.4897 80.5139 31.3394ZM81.789 33.3321C81.9442 33.3224 82.0799 33.3321 82.206 33.3758C82.3321 33.4194 82.4436 33.4873 82.5357 33.5842C82.623 33.6812 82.6908 33.7879 82.7345 33.9091C82.7781 34.0255 82.8024 34.1564 82.8024 34.297V41.5891H80.7417V34.6606C80.7417 34.6121 80.7321 34.5733 80.7224 34.5394C80.7127 34.5055 80.6884 34.4715 80.6642 34.4424C80.6399 34.4182 80.6108 34.3939 80.5769 34.3794C80.543 34.3649 80.5042 34.36 80.4557 34.36H80.0339V33.4194L80.1745 33.4097L81.789 33.3321ZM69.8521 36.4061C69.8521 36.0521 69.823 35.7564 69.7648 35.5139C69.7114 35.2812 69.6242 35.097 69.5175 34.9661C69.4108 34.8352 69.2848 34.7333 69.1393 34.6703C68.9987 34.6073 68.8339 34.5733 68.6496 34.5733C68.509 34.5733 68.3636 34.5879 68.2084 34.6218C68.0484 34.6509 67.8836 34.7043 67.7139 34.7673C67.5393 34.8352 67.3599 34.9127 67.1757 35.0049C67.0157 35.0824 66.8508 35.1649 66.6811 35.2618V41.5939H64.606V33.3855H66.5939L66.6036 33.5261L66.6375 34.0109C66.7684 33.9382 66.909 33.8703 67.0448 33.8024C67.2581 33.7055 67.4811 33.6133 67.7139 33.5309C67.9466 33.4436 68.1842 33.3806 68.4217 33.337C68.6593 33.2933 68.8969 33.2691 69.1345 33.2691C69.4933 33.2691 69.8327 33.3273 70.1624 33.4485C70.3272 33.5067 70.4921 33.5891 70.6472 33.6861C70.8024 33.7879 70.9527 33.9042 71.0981 34.0449C71.2484 34.2 71.3793 34.36 71.486 34.5249C71.5927 34.6946 71.6799 34.8691 71.743 35.0533C71.806 35.2327 71.8496 35.4315 71.8836 35.6497C71.9127 35.863 71.9321 36.0958 71.9321 36.343V41.5891H69.8569V36.4061H69.8521ZM47.5636 29.817H49.6048V36.8376C49.6048 37.1382 49.6145 37.4242 49.6387 37.6909C49.663 37.9624 49.692 38.2145 49.7405 38.4473C49.7842 38.68 49.8423 38.8982 49.9151 39.0921C49.9878 39.2909 50.0751 39.4655 50.1769 39.6255C50.2787 39.7806 50.3902 39.9212 50.5211 40.0424C50.652 40.1588 50.8024 40.2606 50.9672 40.343C51.132 40.4255 51.3211 40.4836 51.5296 40.5273C51.743 40.5709 51.9757 40.5903 52.2375 40.5903C52.5333 40.5903 52.7999 40.5612 53.0472 40.5079C53.2896 40.4497 53.5127 40.3673 53.7114 40.2558C53.9102 40.1394 54.0896 40.0085 54.2496 39.8485C54.4096 39.6933 54.5454 39.5091 54.6617 39.3103C54.7733 39.1212 54.8605 38.9273 54.9284 38.7236C54.9963 38.52 55.0351 38.3164 55.0496 38.0982C55.069 37.8655 55.0836 37.6473 55.0933 37.4339C55.103 37.2255 55.1078 37.0121 55.1078 36.7891V29.8121H56.3345V37.1867C56.3345 37.6618 56.3005 38.137 56.2278 38.617C56.189 38.8642 56.126 39.1018 56.0339 39.3394C55.9417 39.5721 55.8205 39.8 55.6702 40.023C55.5054 40.2751 55.3066 40.4982 55.0787 40.7067C54.8508 40.9103 54.5939 41.0897 54.3078 41.2449C54.0169 41.4049 53.6872 41.5212 53.3187 41.6036C52.9502 41.6812 52.5478 41.72 52.1066 41.72C51.3454 41.72 50.6714 41.6279 50.0945 41.4485C49.5078 41.2642 49.0181 40.9879 48.6205 40.6243C48.223 40.2558 47.9272 39.7855 47.7284 39.2133C47.5345 38.6461 47.4375 37.9818 47.4375 37.2206V29.8121H47.583L47.5636 29.817ZM141.571 22.0642C141.571 23.9261 140.878 24.2946 139.268 24.2946H133.314C132.441 24.2946 131.913 23.9939 131.913 23.1212V22.2727C131.913 21.2836 132.398 21.0073 133.202 21.0073H141.571V22.0642ZM139.316 26.6412C143.733 26.6412 144.999 25.4242 144.999 21.8121V18.777C144.999 15.6012 143.428 14.1758 139.452 14.1758H129.697L128.679 16.6146H139.447C140.965 16.6146 141.566 17.0315 141.566 18.6121V18.8885H132.829C129.377 18.8885 128.504 20.0861 128.504 22.1806V23.3539C128.504 25.3758 129.469 26.6461 133.057 26.6461H139.311L139.316 26.6412ZM168.824 13.463C169.697 13.463 170.022 13.1382 170.022 12.4061V11.0727C170.022 10.3358 169.697 10.0352 168.824 10.0352H167.699C166.846 10.0352 166.526 10.3358 166.526 11.0727V12.4061C166.526 13.143 166.851 13.463 167.699 13.463H168.824Z" fill="#221F20"/>
<path fill-rule="evenodd" clip-rule="evenodd" d="M2.62858 8.70414C13.8286 6.9102 25.111 6.95384 36.311 8.70414L38.7207 9.08232V28.6654C38.711 33.189 37.6734 37.3781 34.614 40.8157C31.0601 44.806 25.4165 46.9345 20.631 49.0532L19.4771 49.5672L18.3231 49.0532C13.5377 46.9296 7.89404 44.8011 4.3401 40.8157C1.27586 37.3781 0.238281 33.1841 0.238281 28.6654V9.09202L2.62858 8.70899V8.70414Z" fill="#E6E6E5"/>
<mask id="mask0_1967_13344" style="mask-type:luminance" maskUnits="userSpaceOnUse" x="0" y="7" width="39" height="43">
<path d="M38.7197 7.375H0.232422V49.5617H38.7197V7.375Z" fill="white"/>
</mask>
<g mask="url(#mask0_1967_13344)">
<path fill-rule="evenodd" clip-rule="evenodd" d="M2.62663 8.70414C13.8266 6.9102 25.1091 6.95384 36.3091 8.70414L38.7188 9.08232V28.6654C38.7091 33.189 37.6715 37.3781 34.6121 40.8157C31.0581 44.806 25.4145 46.9345 20.6291 49.0532L19.4751 49.5672L18.3212 49.0532C13.5357 46.9296 7.89209 44.8011 4.33815 40.8157C1.2739 37.3781 0.236328 33.1841 0.236328 28.6654V9.09202L2.62663 8.70899V8.70414Z" fill="#BBBCBF"/>
</g>
<path fill-rule="evenodd" clip-rule="evenodd" d="M19.4764 10.4532C14.0897 10.4483 8.70307 10.8604 3.31641 11.7138V28.6592C3.32125 39.1029 9.61459 41.8617 17.92 45.5029C18.4679 45.7404 19.0255 45.9877 19.4764 46.1865C19.937 45.9829 20.4849 45.7404 21.0328 45.5029C29.3382 41.8617 35.6316 39.1029 35.6316 28.6592V11.7138C30.2497 10.8847 24.8631 10.458 19.4764 10.4532Z" fill="#00A3BA"/>
<path d="M9.87079 20.2117L10.2247 19.8577L11.9605 20.7207L11.9702 33.225L19.4756 37.608L26.9811 33.225L26.9908 20.7207L28.7266 19.8577L29.0805 20.2117V34.4662L20.3969 39.5862C19.7035 40.0274 19.2478 40.0274 18.5544 39.5862L9.87079 34.4662V20.2117ZM19.4756 20.0129L10.055 14.5195L8.86231 15.2517C8.29018 15.6007 8.4017 16.0274 8.76534 16.2407L19.4756 22.5001L30.1859 16.2407C30.5544 16.0274 30.6611 15.6007 30.0938 15.2517L28.9011 14.5195L19.4756 20.0129ZM14.695 22.2723L19.4805 25.0892L24.2659 22.2723C24.552 22.1026 24.8575 22.4565 24.8575 22.7862V31.9838L23.3641 32.8517C23.2526 32.9195 23.1653 32.9389 23.0781 32.871C22.8987 32.7353 22.6659 32.5995 22.6756 32.3474L22.6853 25.642L19.4756 27.5377L16.2659 25.642L16.2756 32.3474C16.2853 32.5995 16.0526 32.7401 15.8732 32.871C15.7859 32.9389 15.6987 32.9195 15.5872 32.8517L14.0938 31.9838V22.7862C14.0938 22.4565 14.4041 22.1026 14.6902 22.2723" fill="white"/>
<path d="M53.5853 54.7307V47.8507H52.6932L50.3659 53.5719L48.0241 47.8507H47.1465V54.7307H47.7332V48.5926L50.2495 54.7307H50.4725L52.9792 48.5926V54.7307H53.5804H53.5853ZM58.9768 54.7307V51.235C58.9768 50.1101 58.1719 49.6253 57.1635 49.6253C56.3392 49.6253 55.7622 49.9065 55.2483 50.4641L55.5441 50.8422C55.9998 50.3186 56.4847 50.1004 57.115 50.1004C57.8471 50.1004 58.4386 50.5077 58.4386 51.2544V52.2629C58.0071 51.778 57.4398 51.555 56.7465 51.555C55.8786 51.555 55.0059 52.1174 55.0059 53.1938C55.0059 54.2701 55.8931 54.8471 56.7465 54.8471C57.435 54.8471 57.9974 54.6241 58.4386 54.1392V54.7307H58.9768ZM56.9404 54.4301C56.1259 54.4301 55.5731 53.9065 55.5731 53.2083C55.5731 52.5101 56.1259 51.9719 56.9404 51.9719C57.5368 51.9719 58.0895 52.195 58.4386 52.6604V53.7465C58.0895 54.2023 57.5319 54.4253 56.9404 54.4253M61.1829 54.7307V51.0992C61.4059 50.6677 62.0895 50.2119 62.5938 50.2119C62.7004 50.2119 62.7683 50.2119 62.8653 50.2313V49.6398C62.1719 49.6398 61.6047 50.0471 61.1829 50.5998V49.7465H60.6447V54.7307H61.1829ZM68.698 54.7307L70.3174 49.7465H69.7356L68.4168 53.9744L67.0156 49.7465H66.5501L65.1489 53.9744L63.8301 49.7465H63.2532L64.8677 54.7307H65.3913L66.7925 50.4689L68.1841 54.7307H68.698ZM75.035 54.7307V51.235C75.035 50.1101 74.2301 49.6253 73.2168 49.6253C72.3925 49.6253 71.8156 49.9065 71.2968 50.4641L71.5974 50.8422C72.0532 50.3186 72.538 50.1004 73.1683 50.1004C73.9004 50.1004 74.4919 50.5077 74.4919 51.2544V52.2629C74.0604 51.778 73.4932 51.555 72.7998 51.555C71.9368 51.555 71.0592 52.1174 71.0592 53.1938C71.0592 54.2701 71.9416 54.8471 72.7998 54.8471C73.4932 54.8471 74.0507 54.6241 74.4919 54.1392V54.7307H75.035ZM72.9889 54.4301C72.1792 54.4301 71.6265 53.9065 71.6265 53.2083C71.6265 52.5101 72.1792 51.9719 72.9889 51.9719C73.5901 51.9719 74.1428 52.195 74.4919 52.6604V53.7465C74.1428 54.2023 73.5853 54.4253 72.9889 54.4253M80.9162 54.7307V47.8507H80.3683V50.5513C79.9804 49.9841 79.3501 49.6204 78.6374 49.6204C77.3186 49.6204 76.4216 50.6677 76.4216 52.2435C76.4216 53.8192 77.3186 54.8519 78.6374 54.8519C79.3792 54.8519 80.0192 54.4544 80.3683 53.9356V54.7307H80.9162ZM78.7295 54.3671C77.6289 54.3671 76.9889 53.4507 76.9889 52.2435C76.9889 51.0362 77.6289 50.1053 78.7295 50.1053C79.4374 50.1053 80.0822 50.5319 80.3683 51.0168V53.4798C80.0774 53.955 79.4325 54.3622 78.7295 54.3622M82.8556 48.9659C83.0786 48.9659 83.2677 48.7816 83.2677 48.5538C83.2677 48.3259 83.0835 48.1562 82.8556 48.1562C82.6277 48.1562 82.4386 48.3307 82.4386 48.5538C82.4386 48.7768 82.6374 48.9659 82.8556 48.9659ZM83.1222 49.7513H82.5889V54.7356H83.1222V49.7513ZM90.7101 54.8519C91.8059 54.8519 92.6107 54.3768 93.2265 53.6253L92.7222 53.315C92.2907 53.9162 91.5392 54.3138 90.7101 54.3138C89.1053 54.3138 87.8447 53.0677 87.8447 51.2932C87.8447 49.5186 89.1053 48.2725 90.7101 48.2725C91.5344 48.2725 92.2907 48.6798 92.7222 49.2713L93.2168 48.9513C92.6398 48.2192 91.8059 47.7344 90.7101 47.7344C88.7659 47.7344 87.2289 49.1792 87.2289 51.2932C87.2289 53.4071 88.7659 54.8471 90.7101 54.8471M98.2835 54.7307V51.2253C98.2835 50.1004 97.7259 49.6253 96.7174 49.6253C95.995 49.6253 95.2822 50.0713 94.9235 50.5077V47.8556H94.3853V54.7356H94.9235V50.9683C95.2435 50.5174 95.9028 50.115 96.5428 50.115C97.2653 50.115 97.7501 50.3865 97.7501 51.3416V54.7404H98.2883L98.2835 54.7307ZM103.651 54.7307V51.235C103.651 50.1101 102.846 49.6253 101.837 49.6253C101.013 49.6253 100.436 49.9065 99.9222 50.4641L100.223 50.8422C100.674 50.3186 101.159 50.1004 101.789 50.1004C102.521 50.1004 103.117 50.5077 103.117 51.2544V52.2629C102.681 51.778 102.119 51.555 101.425 51.555C100.557 51.555 99.6798 52.1174 99.6798 53.1938C99.6798 54.2701 100.572 54.8471 101.425 54.8471C102.114 54.8471 102.671 54.6241 103.117 54.1392V54.7307H103.651ZM101.614 54.4301C100.8 54.4301 100.252 53.9065 100.252 53.2083C100.252 52.5101 100.8 51.9719 101.614 51.9719C102.211 51.9719 102.768 52.195 103.122 52.6604V53.7465C102.773 54.2023 102.211 54.4253 101.614 54.4253M109.222 54.7307V51.2447C109.222 50.1198 108.669 49.6253 107.656 49.6253C106.928 49.6253 106.22 50.0713 105.857 50.5077V49.7513H105.323V54.7356H105.857V50.9683C106.177 50.5174 106.836 50.115 107.481 50.115C108.199 50.115 108.688 50.4059 108.688 51.3659V54.7356H109.222V54.7307ZM115.113 54.7307V47.8507H114.56V50.5513C114.167 49.9841 113.537 49.6204 112.829 49.6204C111.505 49.6204 110.613 50.6677 110.613 52.2435C110.613 53.8192 111.505 54.8519 112.829 54.8519C113.576 54.8519 114.211 54.4544 114.56 53.9356V54.7307H115.113ZM112.926 54.3671C111.82 54.3671 111.18 53.4507 111.18 52.2435C111.18 51.0362 111.82 50.1053 112.926 50.1053C113.624 50.1053 114.274 50.5319 114.56 51.0168V53.4798C114.274 53.955 113.624 54.3622 112.926 54.3622M120.48 54.7307V51.235C120.48 50.1101 119.68 49.6253 118.666 49.6253C117.842 49.6253 117.26 49.9065 116.746 50.4641L117.047 50.8422C117.503 50.3186 117.988 50.1004 118.613 50.1004C119.35 50.1004 119.942 50.5077 119.942 51.2544V52.2629C119.51 51.778 118.943 51.555 118.25 51.555C117.382 51.555 116.509 52.1174 116.509 53.1938C116.509 54.2701 117.396 54.8471 118.25 54.8471C118.938 54.8471 119.5 54.6241 119.942 54.1392V54.7307H120.48ZM118.434 54.4301C117.624 54.4301 117.071 53.9065 117.071 53.2083C117.071 52.5101 117.624 51.9719 118.434 51.9719C119.035 51.9719 119.588 52.195 119.942 52.6604V53.7465C119.593 54.2023 119.035 54.4253 118.434 54.4253M122.686 54.7307V51.0992C122.909 50.6677 123.593 50.2119 124.097 50.2119C124.199 50.2119 124.271 50.2119 124.359 50.2313V49.6398C123.67 49.6398 123.103 50.0471 122.681 50.5998V49.7465H122.143V54.7307H122.681H122.686ZM129.12 54.7307V51.235C129.12 50.1101 128.315 49.6253 127.306 49.6253C126.482 49.6253 125.905 49.9065 125.386 50.4641L125.687 50.8422C126.143 50.3186 126.628 50.1004 127.258 50.1004C127.99 50.1004 128.582 50.5077 128.582 51.2544V52.2629C128.15 51.778 127.583 51.555 126.89 51.555C126.022 51.555 125.149 52.1174 125.149 53.1938C125.149 54.2701 126.031 54.8471 126.89 54.8471C127.583 54.8471 128.14 54.6241 128.582 54.1392V54.7307H129.12ZM127.074 54.4301C126.264 54.4301 125.711 53.9065 125.711 53.2083C125.711 52.5101 126.264 51.9719 127.074 51.9719C127.675 51.9719 128.228 52.195 128.582 52.6604V53.7465C128.233 54.2023 127.675 54.4253 127.074 54.4253M134.691 54.7307V51.2447C134.691 50.1198 134.128 49.6253 133.12 49.6253C132.397 49.6253 131.69 50.0713 131.326 50.5077V49.7513H130.788V54.7356H131.326V50.9683C131.646 50.5174 132.3 50.115 132.94 50.115C133.663 50.115 134.148 50.4059 134.148 51.3659V54.7356H134.686L134.691 54.7307ZM140.058 54.7307V51.235C140.058 50.1101 139.258 49.6253 138.25 49.6253C137.425 49.6253 136.843 49.9065 136.33 50.4641L136.63 50.8422C137.086 50.3186 137.571 50.1004 138.196 50.1004C138.933 50.1004 139.525 50.5077 139.525 51.2544V52.2629C139.093 51.778 138.526 51.555 137.833 51.555C136.965 51.555 136.092 52.1174 136.092 53.1938C136.092 54.2701 136.974 54.8471 137.833 54.8471C138.521 54.8471 139.083 54.6241 139.525 54.1392V54.7307H140.058ZM138.017 54.4301C137.202 54.4301 136.654 53.9065 136.654 53.2083C136.654 52.5101 137.202 51.9719 138.017 51.9719C138.618 51.9719 139.171 52.195 139.525 52.6604V53.7465C139.176 54.2023 138.618 54.4253 138.017 54.4253M147.646 54.8616C148.732 54.8616 149.648 54.401 150.259 53.7222V51.3125H147.074V51.8362H149.673V53.4895C149.304 53.8677 148.572 54.3235 147.651 54.3235C146.046 54.3235 144.785 53.0677 144.785 51.2932C144.785 49.5186 146.046 48.2725 147.651 48.2725C148.528 48.2725 149.314 48.6556 149.799 49.2326L150.245 48.9126C149.614 48.1901 148.79 47.7344 147.651 47.7344C145.716 47.7344 144.17 49.1695 144.17 51.2932C144.17 53.4168 145.716 54.8616 147.651 54.8616M152.266 54.7307V51.0992C152.49 50.6677 153.173 50.2119 153.677 50.2119C153.779 50.2119 153.852 50.2119 153.939 50.2313V49.6398C153.251 49.6398 152.683 50.0471 152.262 50.5998V49.7465H151.723V54.7307H152.262H152.266ZM157.1 54.8519C158.579 54.8519 159.5 53.6883 159.5 52.2386C159.5 50.7889 158.574 49.6253 157.1 49.6253C155.626 49.6253 154.72 50.7792 154.72 52.2386C154.72 53.698 155.651 54.8519 157.1 54.8519ZM157.1 54.3671C155.946 54.3671 155.287 53.3441 155.287 52.2386C155.287 51.1332 155.946 50.1101 157.1 50.1101C158.254 50.1101 158.928 51.1332 158.928 52.2386C158.928 53.3441 158.279 54.3671 157.1 54.3671ZM164.785 54.7307V49.7465H164.247V53.5429C163.917 53.9841 163.273 54.3622 162.633 54.3622C161.91 54.3622 161.425 54.0956 161.425 53.1259V49.7416H160.887V53.2471C160.887 54.3671 161.445 54.8422 162.453 54.8422C163.176 54.8422 163.845 54.4447 164.247 53.9889V54.7259H164.785V54.7307ZM168.722 54.8519C170.051 54.8519 170.948 53.8192 170.948 52.2386C170.948 50.658 170.051 49.6253 168.722 49.6253C167.976 49.6253 167.34 50.0326 166.991 50.5368V49.7513H166.448V56.6313H166.991V53.9307C167.389 54.498 168.024 54.8568 168.722 54.8568M168.63 54.3671C167.937 54.3671 167.277 53.9356 166.996 53.4604V50.9926C167.282 50.5223 167.942 50.1053 168.63 50.1053C169.745 50.1053 170.376 51.0265 170.376 52.2338C170.376 53.441 169.745 54.3622 168.63 54.3622" fill="#221F20"/>
<path d="M178.628 0.273438H177.877V63.7256H178.628V0.273438Z" fill="white"/>
<mask id="mask1_1967_13344" style="mask-type:luminance" maskUnits="userSpaceOnUse" x="185" y="19" width="40" height="39">
<path d="M185.881 38.311C185.881 48.8661 194.438 57.4189 204.989 57.4189C215.539 57.4189 224.097 48.8661 224.097 38.311C224.097 27.7558 215.539 19.2031 204.989 19.2031C194.438 19.2031 185.881 27.7558 185.881 38.311Z" fill="white"/>
</mask>
<g mask="url(#mask1_1967_13344)">
<path d="M224.097 19.207H185.881V57.4179H224.097V19.207Z" fill="url(#paint0_radial_1967_13344)"/>
</g>
<path d="M204.989 57.4189C215.544 57.4189 224.097 48.8661 224.097 38.311C224.097 27.7558 215.544 19.2031 204.989 19.2031C194.434 19.2031 185.881 27.7558 185.881 38.311C185.881 48.8661 194.434 57.4189 204.989 57.4189Z" fill="url(#paint1_linear_1967_13344)"/>
<mask id="mask2_1967_13344" style="mask-type:luminance" maskUnits="userSpaceOnUse" x="183" y="17" width="43" height="43">
<path d="M201.547 55.5067C201.48 55.4922 201.407 55.4825 201.339 55.4679C201.271 55.4534 201.198 55.4437 201.126 55.4243C197.95 54.7843 195.084 53.2909 192.786 51.1867C192.733 51.1382 192.675 51.0849 192.616 51.0316C192.563 50.9782 192.505 50.9249 192.447 50.8667C189.14 47.6861 187.08 43.211 187.08 38.251C187.08 28.5782 194.924 20.7334 204.597 20.7334C214.27 20.7334 222.11 28.5782 222.11 38.251C222.11 43.2061 220.049 47.6812 216.747 50.8667C216.694 50.92 216.636 50.9782 216.578 51.0267L216.408 51.1867C214.11 53.2861 211.244 54.7891 208.069 55.4243C208.001 55.4388 207.928 55.4534 207.855 55.4679C207.787 55.4825 207.715 55.4922 207.647 55.5067C206.653 55.6813 205.635 55.7734 204.592 55.7734C203.55 55.7734 202.532 55.6813 201.538 55.5067M206.226 18.3576C205.111 19.2255 203.797 18.9637 202.745 18.1734C201.775 17.4364 200.549 17.16 199.351 17.3734C198.221 17.577 197.223 18.2461 196.568 19.1867C196.277 19.6085 196.141 20.0934 195.889 20.5346C195.589 21.0679 195.099 21.48 194.522 21.6934C194.037 21.8728 193.562 21.8582 193.053 21.8049C192.398 21.7273 191.744 21.7419 191.109 21.9503C189.95 22.3334 188.985 23.1867 188.481 24.3019C188.229 24.8643 188.093 25.4703 188.098 26.0861C188.098 26.6728 188.267 27.2158 188.146 27.8073C188.03 28.3503 187.744 28.8449 187.336 29.2182C186.895 29.6109 186.343 29.7419 185.838 30.0231C183.734 31.2012 183.012 34.0376 184.292 36.0788C184.607 36.5831 184.995 36.9612 185.16 37.5576C185.339 38.2122 185.256 38.9152 184.927 39.5115C184.675 39.9722 184.296 40.3358 184.069 40.8158C183.807 41.3782 183.656 41.9746 183.637 42.5903C183.598 43.7297 184.049 44.8594 184.82 45.6837C185.615 46.5322 186.861 46.6728 187.589 47.5503C188.456 48.6025 187.986 49.674 188.117 50.8764C188.253 52.1225 188.917 53.2376 189.94 53.96C190.309 54.2219 190.692 54.4012 191.084 54.5176C191.152 54.5419 191.225 54.5564 191.293 54.5758C191.361 54.5903 191.433 54.6097 191.506 54.6194C192.059 54.7212 192.641 54.7212 193.247 54.6631C194.478 54.5467 195.55 55.1625 196.054 56.2922C196.529 57.3588 197.169 58.2461 198.25 58.76C198.721 58.9831 199.22 59.1237 199.729 59.1722C199.807 59.1819 199.875 59.1867 199.952 59.1867C200.025 59.1867 200.098 59.1915 200.175 59.1915C200.68 59.1915 201.184 59.1043 201.669 58.92C202.813 58.4837 203.564 57.4267 204.912 57.5964C206.105 57.7419 206.871 58.8085 208.04 59.08C208.36 59.1528 208.689 59.1915 209.019 59.1964C209.096 59.1964 209.169 59.1964 209.242 59.1915C209.315 59.1915 209.387 59.1867 209.465 59.177C210.12 59.114 210.764 58.9103 211.327 58.5612C211.821 58.2558 212.243 57.8534 212.583 57.3831C212.922 56.9128 213.058 56.36 213.358 55.8752C214.061 54.7552 215.172 54.6 216.374 54.7212C216.82 54.7649 217.266 54.7358 217.698 54.6388C217.766 54.6243 217.838 54.6097 217.906 54.5903C217.974 54.5709 218.042 54.5515 218.11 54.5273C218.696 54.3334 219.24 54.0182 219.705 53.5964C220.592 52.7964 221.111 51.594 221.106 50.4013C221.096 49.8485 220.941 49.3297 221.038 48.777C221.145 48.1661 221.465 47.6085 221.94 47.2109C222.362 46.8522 222.886 46.7309 223.361 46.4643C223.899 46.1637 224.364 45.737 224.723 45.2425C225.402 44.3212 225.673 43.1479 225.499 42.0182C225.421 41.4849 225.237 40.9564 224.956 40.4909C224.636 39.9625 224.204 39.5552 224.04 38.9346C223.88 38.3479 223.923 37.7176 224.17 37.1649C224.413 36.6219 224.869 36.2146 225.126 35.6716C226.221 33.3879 225.106 30.7503 222.827 29.7661C221.775 29.3152 221 28.4619 221 27.2594C221 26.7358 221.13 26.2316 221.082 25.7031C221.029 25.0631 220.84 24.4425 220.515 23.8897C219.904 22.8473 218.832 22.057 217.644 21.8291C217.189 21.7419 216.738 21.7661 216.292 21.7903C215.598 21.8291 214.924 21.8679 214.275 21.4897C213.193 20.8691 213.063 19.6085 212.282 18.7213C211.526 17.8631 210.42 17.3637 209.286 17.2909C209.198 17.2861 209.111 17.2812 209.024 17.2812C207.996 17.2812 207.012 17.6837 206.226 18.3431" fill="white"/>
</mask>
<g mask="url(#mask2_1967_13344)">
<path d="M226.22 17.1602H183.016V59.2062H226.22V17.1602Z" fill="url(#paint2_linear_1967_13344)"/>
</g>
<mask id="mask3_1967_13344" style="mask-type:luminance" maskUnits="userSpaceOnUse" x="189" y="22" width="32" height="33">
<path d="M193.818 48.819C193.764 48.7657 193.711 48.7027 193.658 48.6445C191.141 45.9051 189.604 42.2542 189.604 38.2445C189.604 29.7597 196.508 22.8554 204.993 22.8554C213.478 22.8554 220.378 29.7597 220.378 38.2445C220.378 42.2493 218.841 45.9002 216.324 48.6445C216.271 48.7027 216.218 48.7609 216.164 48.819C216.111 48.8772 216.058 48.9354 215.999 48.9887C213.808 51.2336 210.938 52.8142 207.723 53.396C207.655 53.4057 207.582 53.4203 207.51 53.43C207.442 53.4445 207.369 53.4542 207.296 53.4687C206.545 53.5803 205.779 53.6384 204.998 53.6384C204.218 53.6384 203.447 53.5803 202.695 53.4687C202.627 53.459 202.555 53.4445 202.487 53.43C202.409 53.4203 202.341 53.4057 202.273 53.3912C199.059 52.8142 196.188 51.2384 193.997 48.9887C193.939 48.9354 193.89 48.8772 193.832 48.819M189.178 38.2494C189.178 42.4433 190.821 46.259 193.493 49.0954C193.546 49.1536 193.599 49.2118 193.653 49.2651C193.706 49.3184 193.759 49.3766 193.818 49.4348C196.033 51.6506 198.904 53.2118 202.108 53.8033C202.181 53.813 202.249 53.8275 202.322 53.8372C202.395 53.8518 202.462 53.8615 202.53 53.8712C203.33 53.9972 204.15 54.0651 204.984 54.0651C205.818 54.0651 206.632 54.0021 207.432 53.8712C207.505 53.8615 207.578 53.8518 207.645 53.8372C207.718 53.8275 207.786 53.813 207.859 53.8033C211.068 53.2118 213.934 51.6457 216.15 49.4348C216.208 49.3815 216.261 49.3233 216.315 49.2651C216.373 49.2118 216.426 49.1536 216.475 49.0954C219.151 46.259 220.79 42.4433 220.79 38.2494C220.79 29.5318 213.696 22.4336 204.974 22.4336C196.252 22.4336 189.158 29.5318 189.158 38.2494" fill="white"/>
</mask>
<g mask="url(#mask3_1967_13344)">
<path d="M220.804 22.4336H189.178V54.0651H220.804V22.4336Z" fill="url(#paint3_linear_1967_13344)"/>
</g>
<mask id="mask4_1967_13344" style="mask-type:luminance" maskUnits="userSpaceOnUse" x="183" y="17" width="43" height="43">
<path d="M204.539 20.9502C214.081 20.9502 221.843 28.7126 221.843 38.2496C221.843 43.1029 219.836 47.4908 216.607 50.6375C216.553 50.6908 216.5 50.7441 216.437 50.7974C216.384 50.8556 216.33 50.9041 216.272 50.9575C213.979 53.0762 211.113 54.5841 207.938 55.2193C207.87 55.2338 207.797 55.2484 207.729 55.2629C207.657 55.2775 207.589 55.2871 207.516 55.3017C206.551 55.4714 205.557 55.5587 204.539 55.5587C203.521 55.5587 202.527 55.4714 201.562 55.3017C201.489 55.292 201.421 55.2775 201.349 55.2629C201.281 55.2484 201.208 55.2338 201.135 55.2193C197.96 54.5841 195.094 53.0811 192.806 50.9575C192.747 50.9041 192.689 50.8556 192.636 50.7974C192.578 50.749 192.52 50.6908 192.466 50.6375C189.242 47.4908 187.235 43.1029 187.235 38.2496C187.235 28.7078 194.997 20.9502 204.534 20.9502M186.808 38.2496C186.808 43.2872 188.922 47.8447 192.306 51.0738C192.364 51.1271 192.418 51.1805 192.476 51.2338C192.534 51.2872 192.587 51.3356 192.646 51.389C194.958 53.4787 197.819 54.972 200.985 55.6217C201.058 55.6362 201.126 55.6508 201.198 55.6653C201.266 55.6799 201.339 55.6896 201.412 55.7041C202.425 55.8884 203.472 55.9805 204.539 55.9805C205.606 55.9805 206.648 55.8884 207.666 55.7041C207.734 55.6896 207.807 55.6799 207.88 55.6653C207.952 55.6508 208.02 55.6411 208.088 55.6217C211.259 54.9768 214.12 53.4835 216.432 51.389C216.49 51.3356 216.549 51.2872 216.602 51.2338C216.655 51.1805 216.713 51.1271 216.772 51.0738C220.156 47.8447 222.27 43.2872 222.27 38.2496C222.27 28.475 214.318 20.5187 204.539 20.5187C194.76 20.5187 186.808 28.475 186.808 38.2496ZM206.304 18.5162C207.157 17.8035 208.195 17.4496 209.218 17.5175C210.328 17.5902 211.366 18.0847 212.064 18.8799C212.355 19.2096 212.558 19.6168 212.757 20.0047C213.072 20.635 213.402 21.2847 214.115 21.692C214.818 22.0993 215.545 22.0605 216.248 22.0217C216.68 21.9974 217.121 21.9732 217.547 22.0556C218.663 22.269 219.681 23.0011 220.272 24.0144C220.573 24.5284 220.762 25.1247 220.815 25.7356C220.84 26.0217 220.815 26.2981 220.777 26.5938C220.752 26.812 220.728 27.0399 220.728 27.2726C220.728 28.4556 221.436 29.4399 222.682 29.9781C223.758 30.4387 224.612 31.3259 225.014 32.4071C225.407 33.4544 225.358 34.5841 224.873 35.5975C224.757 35.8399 224.597 36.0532 224.427 36.2811C224.243 36.5284 224.054 36.7902 223.918 37.0908C223.647 37.6871 223.598 38.3659 223.773 39.0011C223.894 39.452 224.146 39.7962 224.389 40.1259C224.505 40.2811 224.617 40.4411 224.718 40.6108C224.98 41.0423 225.155 41.5465 225.237 42.0605C225.402 43.1465 225.135 44.2617 224.5 45.1296C224.146 45.6144 223.695 46.0168 223.201 46.2932C223.031 46.3853 222.861 46.4629 222.677 46.5356C222.362 46.6714 222.037 46.812 221.746 47.0593C221.232 47.4908 220.883 48.092 220.772 48.7562C220.704 49.1247 220.747 49.4835 220.786 49.8181C220.81 50.0217 220.835 50.2156 220.835 50.4144C220.84 51.5538 220.345 52.6932 219.506 53.4496C219.055 53.8568 218.532 54.1575 217.974 54.3368C217.906 54.3611 217.834 54.3805 217.766 54.3999C217.698 54.4193 217.63 54.4387 217.562 54.4484C217.16 54.5356 216.747 54.5599 216.335 54.5211C215.269 54.4193 213.94 54.4629 213.121 55.772C212.975 56.0047 212.869 56.252 212.757 56.4896C212.636 56.7659 212.52 57.0278 212.35 57.2702C212.02 57.7308 211.613 58.109 211.152 58.395C210.604 58.7296 209.974 58.9332 209.329 58.9865C209.257 58.9962 209.184 58.9962 209.106 58.9962C209.029 58.9962 208.956 58.9962 208.878 58.9962C208.592 58.9962 208.311 58.9526 208.03 58.8896C207.521 58.7732 207.089 58.4871 206.633 58.1914C206.105 57.8471 205.562 57.4932 204.878 57.4059C204.772 57.3914 204.67 57.3865 204.568 57.3865C203.773 57.3865 203.177 57.7744 202.595 58.1526C202.255 58.3708 201.911 58.5987 201.528 58.7441C201.106 58.9041 200.65 58.9914 200.195 59.0011C200.117 59.0011 200.044 59.0011 199.967 59.0011C199.894 59.0011 199.821 58.9962 199.744 58.9865C199.244 58.9478 198.75 58.812 198.284 58.5938C197.373 58.1623 196.723 57.435 196.19 56.2326C195.652 55.0253 194.493 54.3465 193.169 54.4774C192.544 54.5405 192.006 54.5308 191.526 54.4435C191.453 54.429 191.38 54.4144 191.312 54.3999C191.24 54.3853 191.172 54.3659 191.104 54.3465C190.711 54.2302 190.352 54.0508 190.013 53.8132C189.038 53.1199 188.408 52.0532 188.282 50.875C188.238 50.5211 188.258 50.1623 188.277 49.8181C188.316 49.0375 188.355 48.2278 187.7 47.4423C187.298 46.9478 186.75 46.6762 186.221 46.4096C185.737 46.172 185.281 45.9441 184.927 45.5611C184.175 44.7562 183.763 43.6847 183.797 42.6181C183.817 42.0411 183.952 41.469 184.209 40.9259C184.326 40.6835 184.481 40.4702 184.65 40.2472C184.791 40.0532 184.941 39.8544 185.063 39.6314C185.417 38.9865 185.504 38.2156 185.315 37.5175C185.189 37.0617 184.941 36.7272 184.709 36.3975C184.612 36.2665 184.51 36.1259 184.418 35.9805C183.841 35.0593 183.666 33.8956 183.947 32.7902C184.229 31.6944 184.937 30.7587 185.887 30.2253C186.057 30.1332 186.226 30.0556 186.41 29.9781C186.755 29.8278 187.109 29.6726 187.419 29.3914C187.865 28.9938 188.17 28.4459 188.297 27.869C188.384 27.4617 188.335 27.0835 188.297 26.7102C188.272 26.5017 188.248 26.3029 188.248 26.1041C188.248 25.5368 188.374 24.9502 188.617 24.4023C189.092 23.3502 190.003 22.5356 191.118 22.1671C191.661 21.9878 192.253 21.9441 192.97 22.0265C193.46 22.0847 193.989 22.109 194.541 21.9053C195.167 21.6726 195.695 21.2265 196.02 20.6496C196.132 20.4556 196.219 20.252 196.306 20.0532C196.423 19.7914 196.529 19.5441 196.689 19.3162C197.32 18.4096 198.284 17.7841 199.337 17.595C200.481 17.3865 201.659 17.6629 202.561 18.3514C203.235 18.8653 203.947 19.1223 204.631 19.1223C205.227 19.1223 205.8 18.9235 206.309 18.5308M206.032 18.1865C205.591 18.5259 204.398 19.1999 202.813 18.0023C201.814 17.2411 200.515 16.9356 199.254 17.1635C198.095 17.372 197.034 18.0653 196.335 19.069C196.156 19.3308 196.035 19.6071 195.914 19.8787C195.831 20.0726 195.754 20.2568 195.652 20.4362C195.375 20.9211 194.929 21.2993 194.391 21.4981C193.93 21.6678 193.46 21.6484 193.024 21.595C192.253 21.5029 191.589 21.5562 190.992 21.755C189.766 22.1574 188.762 23.0593 188.234 24.2229C187.962 24.8241 187.826 25.469 187.826 26.0993C187.826 26.3271 187.85 26.5453 187.875 26.7538C187.913 27.1029 187.952 27.4374 187.88 27.7768C187.778 28.2714 187.511 28.732 187.133 29.0714C186.876 29.3041 186.566 29.4399 186.241 29.5805C186.057 29.6581 185.867 29.7453 185.678 29.8471C184.626 30.4338 183.841 31.4714 183.53 32.6787C183.22 33.8908 183.414 35.1756 184.054 36.1987C184.156 36.3538 184.258 36.4993 184.36 36.6399C184.583 36.9502 184.796 37.2411 184.903 37.6241C185.067 38.2156 184.985 38.875 184.689 39.4229C184.583 39.6217 184.452 39.7962 184.306 39.9853C184.137 40.2181 183.957 40.4556 183.826 40.7368C183.54 41.3381 183.395 41.9635 183.37 42.5987C183.341 43.7817 183.787 44.9599 184.617 45.8423C185.024 46.2787 185.538 46.5356 186.032 46.7829C186.541 47.035 187.026 47.2775 187.375 47.6993C187.918 48.3587 187.884 49.0229 187.85 49.7841C187.831 50.1478 187.812 50.5162 187.855 50.909C187.991 52.2035 188.689 53.3769 189.761 54.1429C190.154 54.4241 190.551 54.6084 190.954 54.7296C191.026 54.7538 191.094 54.7732 191.162 54.7878C191.235 54.8071 191.303 54.8217 191.37 54.8362C192.015 54.9623 192.641 54.9429 193.208 54.8847C194.347 54.7781 195.337 55.355 195.797 56.3877C196.379 57.692 197.087 58.4871 198.1 58.9623C198.575 59.1853 199.08 59.3308 199.589 59.3841C199.661 59.3938 199.734 59.3987 199.812 59.4084C199.884 59.4084 199.957 59.4132 200.035 59.4132C200.597 59.4229 201.155 59.3308 201.678 59.132C202.1 58.972 202.469 58.7296 202.823 58.5017C203.438 58.0993 204.02 57.7259 204.82 57.8229C205.397 57.8956 205.882 58.2108 206.391 58.5453C206.857 58.8508 207.341 59.1659 207.923 59.3017C208.272 59.3841 208.626 59.4229 208.98 59.4229C208.995 59.4229 209.014 59.4229 209.029 59.4229C209.101 59.4229 209.174 59.4229 209.252 59.4181C209.324 59.4181 209.397 59.4084 209.475 59.3938C210.149 59.3259 210.798 59.1126 211.37 58.7635C211.884 58.4435 212.33 58.0266 212.689 57.5223C212.888 57.2508 213.019 56.955 213.145 56.669C213.247 56.4362 213.344 56.2132 213.475 56.0096C214.023 55.132 214.866 54.8168 216.282 54.9526C216.757 55.0011 217.232 54.9671 217.698 54.8605C217.766 54.8459 217.838 54.8314 217.906 54.8072C217.974 54.7926 218.042 54.7684 218.11 54.7441C218.716 54.5453 219.288 54.2156 219.778 53.7744C220.704 52.9356 221.252 51.6799 221.247 50.4193C221.247 50.1962 221.223 49.9829 221.198 49.7744C221.16 49.4496 221.121 49.1441 221.179 48.8338C221.281 48.2714 221.572 47.7623 222.008 47.3938C222.25 47.1902 222.537 47.0641 222.837 46.9332C223.021 46.8556 223.21 46.7732 223.4 46.6665C223.943 46.3659 224.437 45.9199 224.83 45.3865C225.383 44.635 225.683 43.7041 225.693 42.7635V42.6423C225.693 42.429 225.674 42.2156 225.64 42.0023C225.557 41.435 225.354 40.8774 225.067 40.4023C224.956 40.2181 224.835 40.0484 224.718 39.8884C224.49 39.5732 224.272 39.2726 224.17 38.8993C224.02 38.3611 224.064 37.7793 224.292 37.275C224.408 37.0181 224.578 36.7902 224.757 36.5429C224.927 36.3053 225.111 36.0678 225.247 35.7914C225.533 35.1853 225.683 34.5405 225.693 33.8956V33.7987C225.688 33.2847 225.591 32.7659 225.402 32.2665C224.956 31.0787 224.02 30.1041 222.842 29.595C222.202 29.3235 221.14 28.6593 221.145 27.2823C221.145 27.0738 221.169 26.8653 221.193 26.6472C221.223 26.3465 221.257 26.0314 221.227 25.7017C221.169 25.0229 220.961 24.3684 220.626 23.8011C219.972 22.6859 218.847 21.8762 217.61 21.6387C217.135 21.5465 216.665 21.5708 216.209 21.595C215.54 21.6338 214.905 21.6629 214.309 21.3235C213.707 20.9793 213.421 20.412 213.121 19.8108C212.912 19.3987 212.699 18.972 212.369 18.5987C211.594 17.7211 210.449 17.1732 209.223 17.0956C209.13 17.0908 209.038 17.0859 208.946 17.0859C207.904 17.0859 206.871 17.4738 206.013 18.1914" fill="white"/>
</mask>
<g mask="url(#mask4_1967_13344)">
<path d="M225.703 16.9375H183.221V59.4296H225.703V16.9375Z" fill="url(#paint4_linear_1967_13344)"/>
</g>
<path d="M195.327 15.6856L192.485 10.6383V15.6856H190.822V7.41406H192.51L195.254 12.2722V7.41406H196.912V15.6856H195.327Z" fill="#6C4327"/>
<path d="M202.739 15.6865L202.356 14.2223H199.786L199.389 15.6865H197.59L200.072 7.41016H202.07L204.538 15.6865H202.739ZM201.066 9.16046L200.111 12.758H202.036L201.066 9.16046Z" fill="#6C4327"/>
<path d="M209.96 15.6865L209.577 14.2223H207.007L206.609 15.6865H204.811L207.293 7.41016H209.291L211.758 15.6865H209.96ZM208.282 9.16046L207.327 12.758H209.252L208.282 9.16046Z" fill="#6C4327"/>
<path d="M211.879 11.5547C211.879 9.03829 213.232 7.27344 215.404 7.27344C216.98 7.27344 217.75 8.30616 218.172 9.25647L216.795 9.86253C216.548 9.20313 216.063 8.74737 215.404 8.74737C214.264 8.74737 213.581 9.91587 213.581 11.5498C213.581 13.1837 214.264 14.3522 215.404 14.3522C216.087 14.3522 216.567 13.8286 216.805 13.1498L218.182 13.7462C217.775 14.7256 217.004 15.831 215.404 15.831C213.232 15.831 211.879 14.0565 211.879 11.5547Z" fill="#6C4327"/>
<path d="M203.957 48.369L203.545 45.6344H200.398L200.015 48.369H194.691L198.982 28.7617H204.946L209.271 48.369H203.947H203.957ZM201.988 34.3811L201.019 41.1108H202.958L201.988 34.3811Z" fill="white"/>
<path d="M214.865 39.8169V43.875H211.806V39.8169H208.484V37.0823H211.806V33.2617H214.865V37.0823H218.186V39.8169H214.865Z" fill="white"/>
</g>
<defs>
<radialGradient id="paint0_radial_1967_13344" cx="0" cy="0" r="1" gradientUnits="userSpaceOnUse" gradientTransform="translate(205.396 37.7692) scale(19.1059 19.1059)">
<stop stop-color="#C92800"/>
<stop offset="1" stop-color="#780000"/>
</radialGradient>
<linearGradient id="paint1_linear_1967_13344" x1="185.557" y1="38.0678" x2="224.69" y2="38.0678" gradientUnits="userSpaceOnUse">
<stop stop-color="#C08F2F"/>
<stop offset="0.3" stop-color="#F4EAD1"/>
<stop offset="0.41" stop-color="#F2DE9A"/>
<stop offset="1" stop-color="#C1902F"/>
</linearGradient>
<linearGradient id="paint2_linear_1967_13344" x1="183.19" y1="38.7783" x2="225.178" y2="38.7783" gradientUnits="userSpaceOnUse">
<stop stop-color="#C6972F"/>
<stop offset="0.12" stop-color="#B37E10"/>
<stop offset="0.26" stop-color="#F8DD7B"/>
<stop offset="0.37" stop-color="#F8DD7B"/>
<stop offset="0.38" stop-color="#F6DA77"/>
<stop offset="0.5" stop-color="#DEB952"/>
<stop offset="0.62" stop-color="#CB9F35"/>
<stop offset="0.74" stop-color="#BD8C20"/>
<stop offset="0.86" stop-color="#B58114"/>
<stop offset="0.97" stop-color="#B37E10"/>
<stop offset="1" stop-color="#B37E10"/>
</linearGradient>
<linearGradient id="paint3_linear_1967_13344" x1="189.235" y1="38.1532" x2="220.851" y2="38.1532" gradientUnits="userSpaceOnUse">
<stop stop-color="#C6972F"/>
<stop offset="0.12" stop-color="#B37E10"/>
<stop offset="0.26" stop-color="#F8DD7B"/>
<stop offset="0.37" stop-color="#F8DD7B"/>
<stop offset="0.38" stop-color="#F6DA77"/>
<stop offset="0.5" stop-color="#DEB952"/>
<stop offset="0.62" stop-color="#CB9F35"/>
<stop offset="0.74" stop-color="#BD8C20"/>
<stop offset="0.86" stop-color="#B58114"/>
<stop offset="0.97" stop-color="#B37E10"/>
<stop offset="1" stop-color="#B37E10"/>
</linearGradient>
<linearGradient id="paint4_linear_1967_13344" x1="183.653" y1="37.7806" x2="225.974" y2="37.7806" gradientUnits="userSpaceOnUse">
<stop stop-color="#B37E10"/>
<stop offset="0.03" stop-color="#B37E10"/>
<stop offset="0.14" stop-color="#B58114"/>
<stop offset="0.26" stop-color="#BD8C20"/>
<stop offset="0.38" stop-color="#CB9F35"/>
<stop offset="0.5" stop-color="#DEB952"/>
<stop offset="0.62" stop-color="#F6DA77"/>
<stop offset="0.63" stop-color="#F8DD7B"/>
<stop offset="0.74" stop-color="#F8DD7B"/>
<stop offset="0.88" stop-color="#B37E10"/>
<stop offset="1" stop-color="#C6972F"/>
</linearGradient>
<clipPath id="clip0_1967_13344">
<rect width="225.939" height="64" fill="white"/>
</clipPath>
</defs>
</svg>
